PathFileType	4	(X/Y/Z)	Patient4_TMGait_0pt4_01_left_16.trc.trc
DataRate	CameraRate	NumFrames	NumMarkers	Units	OrigDataRate	OrigDataStartFrame	OrigNumFrames
93.959731543624	93.959731543624	5	33	mm	93.959731543624	18	       141
Frame#	Time	Sacral			L.Shoulder			Chest			R.Shoulder			Neck			R.ASIS			L.ASIS			R.Thigh.Superior			R.Thigh.Lateral			R.Thigh.Inferior			R.Patella			L.Thigh.Superior			L.Thigh.Lateral			L.Thigh.Inferior			L.Patella			L.Shank.Superior			L.Shank.Lateral			L.Shank.Inferior			R.Shank.Superior			R.Shank.Lateral			R.Shank.Inferior			R.Heel			R.Midfoot.Superior			R.Midfoot.Lateral			R.Toe			L.Heel			L.Midfoot.Lateral			L.Midfoot.Superior			L.Toe			L.Elbow			L.Wrist			R.Elbow			R.Wrist			
		X1	Y1	Z1	X2	Y2	Z2	X3	Y3	Z3	X4	Y4	Z4	X5	Y5	Z5	X6	Y6	Z6	X7	Y7	Z7	X8	Y8	Z8	X9	Y9	Z9	X10	Y10	Z10	X11	Y11	Z11	X12	Y12	Z12	X13	Y13	Z13	X14	Y14	Z14	X15	Y15	Z15	X16	Y16	Z16	X17	Y17	Z17	X18	Y18	Z18	X19	Y19	Z19	X20	Y20	Z20	X21	Y21	Z21	X22	Y22	Z22	X23	Y23	Z23	X24	Y24	Z24	X25	Y25	Z25	X26	Y26	Z26	X27	Y27	Z27	X28	Y28	Z28	X29	Y29	Z29	X30	Y30	Z30	X31	Y31	Z31	X32	Y32	Z32	X33	Y33	Z33	

18	20.180928571429	752.093158206030	1018.134861019539	498.535311873588	902.976937817531	1431.863058265125	277.745816074699	1045.178199447562	1360.246589321763	404.275655194286	1018.459093383581	1439.962097459725	594.015415091411	932.654528638041	1494.423795996573	441.416730899220	997.572731244222	936.034305888426	564.343791552553	927.605401231140	964.854031689735	297.882181719470	992.179827333757	726.091230128120	537.643498715690	896.770250855908	632.131071964413	611.064174243245	949.586061197295	567.420449521373	525.200848177133	934.789568056210	486.188459456581	532.542783329914	1005.661647737118	780.141543999458	323.089569336106	956.369281090657	654.565431678540	243.458911419018	1061.652492933821	593.445783211591	299.369868605167	1087.967927975734	524.205997918530	289.361543609207	1060.924673547275	450.246585893829	279.754636805616	975.867443304589	332.535354894601	226.190058358022	1048.772972869054	220.138650635547	275.763084033944	900.305569348424	401.627781931746	540.846992437863	826.430437959993	302.332202891657	606.224765846037	857.834479694207	205.752136203337	538.792861590491	713.026893335786	44.147704269341	511.128069870236	886.356955536884	95.998650452565	543.577518905043	797.983899082307	36.650762132213	583.627386166810	1006.157537739255	39.574456379373	568.530396109232	944.375222806522	48.054683346654	310.342243704126	1015.011224257063	51.718892928812	227.580663756581	1092.768348684123	123.006632161434	249.301725754227	1222.285691713087	85.755346988761	215.292897994030	766.313398068441	1092.439757044808	222.417582459048	773.353717523385	830.550209585848	232.108850065331	1108.245629315405	1107.995638656080	707.104031128776	1335.425910988639	1104.790967592256	599.807625000662	
19	20.191571428571	751.765038171661	1017.621657514491	496.875192328425	902.463067610523	1431.391194036775	275.959418728718	1044.662001393284	1359.525242570398	402.339694092682	1018.068858121319	1439.128990143719	592.135929517189	932.221901362181	1493.780272250334	439.645879547019	997.224859539833	935.511698347021	562.896901578002	927.177187610503	963.644904121835	296.200621109864	990.011385190485	725.300720911893	536.813158661365	893.705680837255	632.110286592326	610.476125747908	945.910247991843	566.862699017562	524.843469499485	930.632599817227	485.820484908505	532.293472910458	1004.461371436535	778.304437648057	321.497047807448	953.432664243920	652.280123667681	242.924794043416	1058.947329912303	591.164671841447	297.972679378727	1084.951586051874	522.524793043770	288.722801106283	1058.804893060994	448.544345289773	279.329387968994	974.870618368810	329.557744067673	227.021125012431	1049.598895548880	218.310843212171	276.457590869894	895.958225199109	401.602033158092	540.688196638413	821.922689550002	302.407463339302	606.166036854005	853.452219172883	205.772684528865	538.779873909486	708.677518878104	44.034150820098	511.142209563321	882.018604384251	95.979220142887	543.603731758529	793.633792808065	36.622916359431	583.677377128305	1001.817768707022	39.609836664405	568.551504849471	947.597316180831	45.275828883072	312.156718241923	1017.698335322013	49.538718453833	228.974566095610	1094.895311398847	121.514057840267	250.146954108994	1224.545545088465	85.405996832388	215.416890864291	762.827827555554	1093.423052793164	220.993204173602	767.390705529596	831.543255050946	230.218222643147	1108.568030258663	1107.368236802060	705.045661551172	1335.624788592032	1103.691234651323	597.451321193102	
20	20.202214285714	751.565761499561	1016.913615749407	494.998797697593	901.892550972242	1430.822927309932	274.065800480628	1044.086471273983	1358.799388727535	400.353489700555	1017.475603601628	1438.232980772049	590.217326389315	931.666923465380	1493.044251285341	437.796152852314	996.989007907777	934.956542807651	561.311510892298	926.972389533686	962.266905964817	294.435749756246	987.991569639780	724.450104746325	535.867349117549	890.793876144464	632.050637138541	609.800212480404	942.376882536799	566.254639054893	524.404792928341	926.625107747338	485.381512813616	531.983415432305	1003.447905335041	776.241583986291	319.790303186476	950.540265160908	649.796343850960	242.421270446639	1056.356469509454	588.753258815188	296.538943310966	1081.911304527740	520.495816684314	287.992863056913	1056.451580025685	446.504919795643	278.833930418012	973.102729665403	326.487446496195	228.238279854476	1049.481505656236	216.220442267686	277.316702793722	891.718620018329	401.515418816351	540.485789171375	817.481832268699	302.463538190127	606.080993333186	849.089451023123	205.743020982079	538.744980857006	704.321388739188	43.892404682201	511.156400855942	877.656849240601	95.947390019753	543.623114952913	789.276101572097	36.581616823000	583.732333377297	997.473887851704	39.654722545405	568.568904928660	949.330803701352	42.866134079879	314.484752381800	1018.692726981449	47.373938521847	230.703810758241	1095.750572226242	119.529475725876	251.165364850863	1225.236987364395	83.851006318991	215.390378353475	759.844902389121	1094.135405454062	219.210208070463	762.171549039173	832.282602439955	227.668311630581	1108.612323193858	1106.654476354164	703.033968585005	1335.632927545493	1102.071708439250	595.272180821915	
21	20.212857142857	751.490500476737	1016.023285680038	492.913006641017	901.271096463679	1430.153980961502	272.058282188845	1043.461386492417	1358.077421276241	398.314303630660	1016.688084042834	1437.285608452733	588.257838774020	930.999740602053	1492.225009066153	435.855488871501	996.863240617516	934.365827722259	559.589622681437	926.989606072616	960.743301490022	292.600585780695	986.164368061155	723.539326282015	534.802521732958	888.082604983351	631.943924347989	609.023468211892	939.042054658685	565.592851519959	523.866845523496	922.830806998232	484.865138000716	531.589719749817	1002.619043141267	773.969990882769	317.981876597582	947.723868926785	647.169811922209	241.935287629148	1053.914192339664	586.260032359209	295.076700136235	1078.880497712504	518.165781279773	287.195315334492	1053.924557957756	444.189623731524	278.270201329056	970.703186416399	323.374202027336	229.698548377117	1048.525905283300	213.907379504000	278.246525166839	887.636295738341	401.353633849797	540.216417187273	813.156741526922	302.496917332999	605.954125139046	844.770369953957	205.653383857666	538.678407986871	699.960223376331	43.727174332323	511.173807645268	873.275254492880	95.904651633242	543.635587451870	784.913141248801	36.525369703175	583.792740754726	993.127126845050	39.706749100476	568.582259916905	949.637797282807	40.855843449637	317.071884248653	1018.163984233838	45.256767499130	232.596418881666	1095.480913637317	117.090398717524	252.293139158590	1224.569015852967	81.130121288923	215.309741537361	757.388217633458	1094.541455456357	217.063999895664	757.729222207071	832.732486270480	224.514716958732	1108.361598409020	1105.852622607211	701.065610279301	1335.431208331443	1099.948695661078	593.281192109705	
22	20.223500000000	751.527336089974	1014.978125566502	490.634992805242	900.610631445947	1429.390043157554	269.932136059765	1042.800767627890	1357.370504061768	396.219183511056	1015.726785314436	1436.305544787215	586.253506264809	930.238811323550	1491.340905130772	433.812798856475	996.839462943949	933.740627760091	557.736943180450	927.212548342389	959.114344980568	290.707471472004	984.573582570916	722.574745848964	533.615384472325	885.623187532507	631.782214850217	608.128501084805	935.968774356501	564.876881876376	523.207026782289	919.317775324772	484.264738593924	531.081782767460	1001.976451670357	771.537148816843	316.081380812273	945.026785833122	644.480443121108	241.443800613648	1051.668041426035	583.751981066616	293.582925641670	1075.913005987736	515.618197131269	286.351580473430	1051.310492882148	441.692280748690	277.633269258160	967.860959108566	320.300113221704	231.222654535617	1046.877341780865	211.447325831714	279.137005653338	883.768711039835	401.103614660026	539.850898834733	809.003294196242	302.505761541705	605.766363475281	840.523721511835	205.496269881489	538.567319049666	695.596930255724	43.546657995709	511.197020855036	868.880270623564	95.854134358060	543.641038938379	780.548464782770	36.454544576160	583.857909358193	988.779391109035	39.761943175294	568.591730384991	948.649524950673	39.269168006357	319.657611445787	1016.344108950617	43.236971776222	234.472199837509	1094.265232416478	114.292702918489	253.445027213584	1222.790477195634	77.397077429033	215.248011903785	755.474920028592	1094.623666587174	214.553196195353	754.094776730440	832.875711930895	220.806208483161	1107.797604971454	1104.964055596636	699.136108857158	1334.998746179583	1097.336671528452	591.493680949116	
